<svg xmlns="http://www.w3.org/2000/svg" xmlns:xlink="http://www.w3.org/1999/xlink" id="Layer_1" x="0px" y="0px" width="451.1px" height="110.2px" viewBox="0 0 451.1 110.2" style="enable-background:new 0 0 451.1 110.2;" xml:space="preserve"><style type="text/css">	.st0{fill:url(#SVGID_1_);}	.st1{fill:#FFFFFF;}</style><g>	<g>		<linearGradient id="SVGID_1_" gradientUnits="userSpaceOnUse" x1="338.35" y1="54.8162" x2="451.1036" y2="54.8162">			<stop offset="0" style="stop-color:#EC3560"></stop>			<stop offset="1" style="stop-color:#ED4423"></stop>		</linearGradient>		<path class="st0" d="M451.1,88.1c0,12.1-9.3,21.5-21.4,21.5h-69.2c-12.2,0-22.1-9.4-22.1-21.5V21.4c0-12.1,9.9-21.4,22.1-21.4   h69.2c12.1,0,21.4,9.3,21.4,21.4V88.1z"></path>	</g>	<path class="st1" d="M325.3,100.2c0-5.5-4.5-10-10-10c-5.5,0-10,4.5-10,10c0,5.6,4.5,10,10,10C320.8,110.2,325.3,105.7,325.3,100.2  z"></path>	<g>		<path class="st1" d="M62,52.4v-0.9c6.8-5.3,10.2-12.3,10.2-21c0-4.8-0.8-8.9-2.3-12.3c-1.5-3.4-3.7-6.2-6.4-8.4   c-2.7-2.2-5.9-3.8-9.6-4.8c-3.7-1-7.7-1.5-12-1.5H0v104.4h44.2c4.7,0,9.1-0.6,13.3-1.7c4.2-1.1,7.8-2.8,11-5.3   c3.1-2.4,5.7-5.5,7.5-9.2c1.9-3.8,2.8-8.3,2.8-13.6c0-6.5-1.5-11.8-4.6-15.8C71,58.1,67,54.9,62,52.4z M13.5,15.7h28.8   c4.8,0,8.7,1,11.5,3.1c2.9,2.1,4.3,5.9,4.3,11.6c0,2.9-0.6,5.4-1.7,7.5c-1.1,2.1-2.6,3.8-4.4,5.2c-1.8,1.4-3.9,2.4-6.3,3.1   c-2.3,0.7-4.7,1.1-7.1,1.1H13.5V15.7z M62.8,86.6c-0.8,2.3-2,4.1-3.6,5.4c-1.6,1.3-3.5,2.2-5.8,2.7c-2.2,0.5-4.8,0.8-7.7,0.8H13.5   V59.6h31.2c6,0,10.7,1.5,14.1,4.7c3.4,3.1,5.1,7.7,5.1,13.7C64,81.4,63.6,84.3,62.8,86.6z"></path>		<path class="st1" d="M166.2,93.5L142,63.2c9.1-0.5,16.2-3.5,21.3-8.9c5.1-5.4,7.6-12.6,7.6-21.6c0-4.5-0.8-8.5-2.3-12.1   c-1.5-3.6-3.6-6.7-6.2-9.2c-2.7-2.6-5.8-4.5-9.5-5.9c-3.7-1.4-7.8-2-12.2-2H93.2v104.4h13.5V63.3h12c1.7,0,3.4,0.3,5.1,0.9   c1.7,0.6,3.1,1.6,4.2,3l26.4,32.9c1.9,2.3,4,4.5,6.4,6.4c2.3,2,5,3,7.9,3c1,0,2.2-0.2,3.7-0.5c1.4-0.3,2.7-0.7,3.8-1.4v-9.5   c-2.1,0-3.8-0.2-5.2-0.7C169.6,97.2,168,95.8,166.2,93.5z M106.8,51.2V15.7h33.3c5.6,0,9.9,1.4,12.8,4.1c2.9,2.8,4.4,7,4.4,12.8   c0,6.3-1.6,11-4.7,14c-3.1,3-7.9,4.5-14.4,4.5H106.8z"></path>		<rect x="188.7" y="3.4" class="st1" width="13.5" height="104.4"></rect>		<path class="st1" d="M297.9,35.7c-1.5-6.3-3.8-11.9-7-16.7c-3.2-4.8-7.3-8.6-12.5-11.4c-5.1-2.8-11.4-4.2-18.8-4.2h-39.5v12.3h7.3   h2H258c5.2,0,9.6,1,13.1,3.1c3.5,2.1,6.3,5,8.4,8.6c2.1,3.6,3.6,7.8,4.5,12.7c0.9,4.8,1.4,10,1.4,15.5c0,5.7-0.4,11-1.1,15.8   c-0.7,4.9-2.1,9.1-4.1,12.6c-2,3.6-4.8,6.3-8.3,8.3c-3.5,2-8.1,3-13.6,3h-38v12.3H260c7.6,0,14-1.3,19.1-3.9   c5.2-2.6,9.3-6.2,12.4-10.9c3.1-4.6,5.3-10.2,6.6-16.5c1.3-6.4,2-13.3,2-20.8C300.1,48.7,299.4,42,297.9,35.7z"></path>	</g>	<path class="st1" d="M386.2,30.6c0,0-23.1,3.8-29.7,5.4c-3,0.8-5.8,1.5-5.9,3.8c0,1.7,0.5,3.6,3.8,3.2c4.1-0.7,15-2.9,15-2.9  l-1.2,28.2c0,0-1.3,15.6,3.9,15.1c5.3-0.5,4.5-16.3,4.5-16.3s-1-19.3,0.7-27.9c0,0,10.5-1.4,16-2.2c4.2-0.5,3.6-4.2,2.8-5.5  C395.2,29.9,391.5,29.8,386.2,30.6z"></path>	<path class="st1" d="M400.8,31.4c0,0,4.6-1,5.1,5.5c0.6,6.5,2.8,25.1,4.6,30c1.4,3.7,2.2,2.7,2.9,1.2c3.2-7.5,7.2-19.6,10.2-27.7  c1.2-3.1,4.2-13.2,9.5-12.7c5.6,0.3-0.2,11.5-1.6,14.9c-3.6,8.5-8.8,21.6-11.3,29.4c-0.8,2.5-2.7,9-7.1,9c-4.4,0-6.9-5.8-8-8.5  c-3.3-8.6-6.8-19.6-7.4-36C397.8,36.4,397.7,32.1,400.8,31.4z"></path></g></svg>