<!DOCTYPE svg PUBLIC "-//W3C//DTD SVG 1.1//EN" "http://www.w3.org/Graphics/SVG/1.1/DTD/svg11.dtd">
<!-- Uploaded to: SVG Repo, www.svgrepo.com, Transformed by: SVG Repo Mixer Tools -->
<svg fill="#ffffff" width="64px" height="64px" viewBox="-2 0 32 32" version="1.1" xmlns="http://www.w3.org/2000/svg" stroke="#ffffff">
<g id="SVGRepo_bgCarrier" stroke-width="0"/>
<g id="SVGRepo_tracerCarrier" stroke-linecap="round" stroke-linejoin="round"/>
<g id="SVGRepo_iconCarrier"> <title>soundcloud</title> <path d="M23.2 22.68h-10.12c-0.28 0-0.56-0.16-0.72-0.4-0.080-0.12-0.12-0.32-0.12-0.48v-10.76c0-0.28 0.16-0.56 0.4-0.72 1.040-0.64 2.28-1 3.52-1 2.92 0 5.48 1.88 6.36 4.64 0.24-0.040 0.48-0.080 0.72-0.080 2.4 0 4.4 1.96 4.4 4.4s-2.040 4.4-4.44 4.4zM13.92 20.96h9.28c1.48 0 2.68-1.2 2.68-2.68s-1.2-2.68-2.68-2.68c-0.36 0-0.72 0.080-1.040 0.2-0.24 0.080-0.52 0.080-0.72-0.040-0.24-0.12-0.4-0.36-0.44-0.6-0.4-2.4-2.48-4.12-4.88-4.12-0.76 0-1.52 0.16-2.2 0.52v9.4zM10.84 21.8v-8.68c0-0.48-0.4-0.84-0.84-0.84s-0.84 0.4-0.84 0.84v8.72c0 0.48 0.4 0.84 0.84 0.84s0.84-0.4 0.84-0.88zM7.8 21.8v-9c0-0.48-0.4-0.84-0.84-0.84s-0.84 0.4-0.84 0.84v9.040c0 0.48 0.4 0.84 0.84 0.84s0.84-0.4 0.84-0.88zM4.76 21.8v-6.48c0-0.48-0.4-0.84-0.84-0.84s-0.84 0.4-0.84 0.84v6.52c0 0.48 0.4 0.84 0.84 0.84s0.84-0.4 0.84-0.88zM1.72 21.32v-5.32c0-0.48-0.4-0.84-0.84-0.84s-0.88 0.36-0.88 0.84v5.32c0 0.48 0.4 0.84 0.84 0.84s0.88-0.36 0.88-0.84z"/> </g>
</svg>